<?xml version="1.0" encoding="UTF-8"?>
<svg id="svg4" xmlns="http://www.w3.org/2000/svg" viewBox="0 0 1000 1000">
  <defs>
    <style>
      .cls-1, .cls-2 {
        fill: #fff;
      }

      .cls-2 {
        fill-rule: evenodd;
      }

      .cls-3 {
        fill: #24c942;
      }
    </style>
  </defs>
  <circle class="cls-3" cx="500" cy="500" r="500"/>
  <g id="Layer1000">
    <path id="path4" class="cls-2" d="M729.45,351.36h44.62v61.12h61.12v44.62h-61.12v61.12h-44.62v-61.12h-61.12v-44.62h61.12v-61.12ZM588.45,389.19c21.73,0,42.69,3.27,62.43,9.33v-44.9c-20.41-5.27-41.82-8.08-63.88-8.08-140.64,0-254.65,114.01-254.65,254.64,0,44.53,11.43,86.39,31.51,122.8l-36.02,137.67,138.42-36.22c35.93,19.39,77.04,30.4,120.74,30.4,140.64,0,254.64-114.01,254.64-254.65,0-20.9-2.53-41.19-7.28-60.63h-42.69c5.99,19.64,9.23,40.48,9.23,62.08,0,117.33-95.11,212.45-212.45,212.45-44.7,0-86.17-13.82-120.39-37.4l-50.81,13.3-25.38,6.64,15.01-57.35h0s5.07-19.38,5.07-19.38c-22.69-33.8-35.94-74.48-35.94-118.26,0-117.33,95.11-212.45,212.45-212.45h0ZM520.11,489.4c-4.3-10.35-7.58-10.7-14.21-11.01-2.28-.11-4.75-.22-7.44-.22-8.55,0-17.4,2.52-22.74,7.98-6.5,6.65-22.74,22.21-22.74,54.18s23.28,62.86,26.53,67.19c3.25,4.33,45.41,70.89,110.99,98.07,51.2,21.2,66.39,19.31,78.08,16.76,16.99-3.71,38.33-16.23,43.74-31.39,5.41-15.18,5.41-28.18,3.79-30.88-1.62-2.71-5.95-4.33-12.45-7.59-6.5-3.24-38.44-18.96-44.4-21.13-5.95-2.17-11.46-1.5-16.04,4.83-6.33,8.75-12.4,17.74-17.44,23.08-3.95,4.18-10.31,4.76-15.78,2.44-7.19-3.06-27.43-10.11-52.25-32.25-19.31-17.22-32.35-38.49-36.14-44.99-3.79-6.5-.33-10.38,2.59-13.91,3.33-4.04,6.4-6.93,9.65-10.72,3.26-3.8,5.07-5.82,7.23-10.16,2.17-4.34.7-8.8-.92-12.06-1.63-3.26-14.63-35.21-20.03-48.23h0Z"/>
    <path id="n" class="cls-1" d="M579.15,376.49c-1.87-7.53-10.65-43.85-7.37-50.87,3.66-7.84,8.99-21.88,9.24-31.51.25-9.63-3.6-28.22-3.51-40.12.09-11.9,8.88-26.08,17.1-26.18,8.1-.09,88.56-6.85,153.43,6.96-.39,1.18-.3,2.51.38,3.67.36.6.84,1.08,1.38,1.44-6.75,6.33-8.48,16.7-3.59,25.01,5.67,9.64,18.08,12.85,27.72,7.18,9.64-5.67,12.85-18.08,7.18-27.72-5.03-8.56-15.38-12.04-24.38-8.74-.07-.59-.26-1.18-.58-1.72-1.25-2.13-4.01-2.84-6.14-1.59-.36.22-.67.48-.95.78-11.15-13.24-72.08-79.51-181.7-88.77-66.02-5.58-95.74,37.58-109.11,78.31-.42,1.27-.8,2.55-1.18,3.82-10.57-20.83-18.76-36.84-20.16-39.23-41.98-71.35-137.08-54.15-189.14-5.58-79.59,74.24-89.12,167.26-89.9,176.7-2.09-.52-4.31.51-5.19,2.54-.25.58-.37,1.19-.37,1.78-9.33-2.19-19.18,2.51-23.15,11.61-4.47,10.25.22,22.18,10.47,26.65,10.25,4.47,22.18-.22,26.65-10.47,3.85-8.84.89-18.92-6.58-24.4.5-.43.92-.96,1.2-1.6.99-2.27-.05-4.91-2.32-5.9-.12-.05-.25-.08-.38-.12,32.21-61.81,113.75-120.9,139.52-77.3,1.5,2.55,7.32,12.89,15.17,26.88-42.07-8.06-94.13-2.98-121.29,57.36-45.16,100.34-16.82,185.8-10.67,201.96-2.38.61-3.83,3.03-3.24,5.41.17.68.49,1.27.91,1.78-8.28,4.14-12.9,13.58-10.59,22.94,2.68,10.86,13.65,17.48,24.51,14.8,10.86-2.68,17.48-13.65,14.8-24.51-2.38-9.64-11.3-15.93-20.87-15.34.1-.59.09-1.2-.06-1.82-.43-1.75-1.84-2.99-3.5-3.31,19.43-63.42,64.44-130.48,68.45-137.51,4.07-7.14,20.74-7.94,31.19-2.23,10.45,5.7,24.83,18.1,33.36,22.56,8.53,4.46,23.39,6.62,32.03,7.23,8.22.58,38.54,28.95,41.43,31.67,0,0,60.02-106.82,189.83-112.51Z"/>
  </g>
</svg>